2Varta-Light100.ufo
<glyph name="four" format="1">
  <advance width="965"/>
  <unicode hex="0034"/>
  <outline>
    <contour>
      <point x="531" y="1228" type="line"/>
      <point x="43" y="406" type="line"/>
      <point x="43" y="304" type="line"/>
      <point x="613" y="304" type="line"/>
      <point x="613" y="1" type="line"/>
      <point x="760" y="1" type="line"/>
      <point x="760" y="305" type="line"/>
      <point x="899" y="307" type="line"/>
      <point x="899" y="432" type="line"/>
      <point x="760" y="432" type="line"/>
      <point x="760" y="1228" type="line"/>
    </contour>
    <contour>
      <point x="613" y="432" type="line"/>
      <point x="225" y="432" type="line"/>
      <point x="356" y="657"/>
      <point x="482" y="873"/>
      <point x="613" y="1097" type="curve"/>
    </contour>
  </outline>
</glyph>
<glyph name="anusvara-deva" format="1">
  <advance width="540"/>
  <unicode hex="0902"/>
  <outline>
    <contour>
      <point x="212" y="1611"/>
      <point x="186" y="1586"/>
      <point x="186" y="1528" type="curve" smooth="yes"/>
      <point x="186" y="1470"/>
      <point x="212" y="1445"/>
      <point x="270" y="1445" type="curve" smooth="yes"/>
      <point x="329" y="1445"/>
      <point x="354" y="1470"/>
      <point x="354" y="1528" type="curve" smooth="yes"/>
      <point x="354" y="1586"/>
      <point x="329" y="1611"/>
      <point x="270" y="1611" type="curve" smooth="yes"/>
    </contour>
    <contour>
      <point x="271" y="1168" type="move" name="_top"/>
    </contour>
  </outline>
</glyph>
<glyph name="visarga-deva" format="1">
  <advance width="584"/>
  <unicode hex="0903"/>
  <outline>
    <contour>
      <point x="244" y="852"/>
      <point x="218" y="827"/>
      <point x="218" y="770" type="curve" smooth="yes"/>
      <point x="218" y="713"/>
      <point x="244" y="688"/>
      <point x="301" y="688" type="curve" smooth="yes"/>
      <point x="359" y="688"/>
      <point x="384" y="713"/>
      <point x="384" y="770" type="curve" smooth="yes"/>
      <point x="384" y="827"/>
      <point x="359" y="852"/>
      <point x="301" y="852" type="curve" smooth="yes"/>
    </contour>
    <contour>
      <point x="244" y="314"/>
      <point x="218" y="289"/>
      <point x="218" y="232" type="curve" smooth="yes"/>
      <point x="218" y="175"/>
      <point x="244" y="150"/>
      <point x="301" y="150" type="curve" smooth="yes"/>
      <point x="359" y="150"/>
      <point x="384" y="175"/>
      <point x="384" y="232" type="curve" smooth="yes"/>
      <point x="384" y="289"/>
      <point x="359" y="314"/>
      <point x="301" y="314" type="curve" smooth="yes"/>
    </contour>
  </outline>
</glyph>
<glyph name="eShort-deva" format="1">
  <advance width="1020"/>
  <unicode hex="090E"/>
  <outline>
    <component base="e-deva"/>
    <component base="eShortMatra-deva" xOffset="538"/>
    <contour>
      <point x="365" y="849" type="move" name="top"/>
    </contour>
    <contour>
      <point x="365" y="20" type="move" name="bottom"/>
    </contour>
  </outline>
</glyph>
<glyph name="na-deva" format="1">
  <advance width="1080"/>
  <unicode hex="0928"/>
  <outline>
    <contour>
      <point x="740" y="1191" type="line"/>
      <point x="740" y="0" type="line"/>
      <point x="866" y="0" type="line"/>
      <point x="866" y="1191" type="line"/>
    </contour>
    <contour>
      <point x="50" y="750" type="line"/>
      <point x="50" y="638" type="line"/>
      <point x="186" y="437" type="line"/>
      <point x="282" y="437"/>
      <point x="300" y="499"/>
      <point x="300" y="575" type="curve" smooth="yes"/>
      <point x="300" y="750" type="line"/>
    </contour>
    <contour>
      <point x="186" y="750" type="line"/>
      <point x="186" y="639" type="line"/>
      <point x="788" y="639" type="line"/>
      <point x="788" y="751" type="line"/>
    </contour>
    <contour>
      <point x="-12" y="1247" type="line"/>
      <point x="-12" y="1143" type="line"/>
      <point x="1093" y="1143" type="line"/>
      <point x="1093" y="1247" type="line"/>
    </contour>
    <contour>
      <point x="276" y="44" type="move" name="nukta"/>
    </contour>
    <contour>
      <point x="803" y="1168" type="move" name="top"/>
    </contour>
    <contour>
      <point x="519" y="1168" type="move" name="topcandrabindu"/>
    </contour>
    <contour>
      <point x="803" y="28" type="move" name="bottom"/>
    </contour>
  </outline>
</glyph>
<glyph name="llla-deva" format="1">
  <advance width="1507"/>
  <unicode hex="0934"/>
  <outline>
    <component base="lla-deva"/>
    <component base="nukta-deva" xOffset="451" yOffset="102"/>
    <contour>
      <point x="833" y="849" type="move" name="top"/>
    </contour>
    <contour>
      <point x="815" y="20" type="move" name="bottom"/>
    </contour>
  </outline>
</glyph>
<glyph name="oeMatra-deva" format="1">
  <advance width="540"/>
  <unicode hex="093A"/>
  <outline>
    <contour>
      <point x="208" y="1113" type="line"/>
      <point x="333" y="1113" type="line"/>
      <point x="333" y="1458" type="line"/>
      <point x="208" y="1458" type="line"/>
    </contour>
  </outline>
</glyph>
<glyph name="nukta-deva" format="1">
  <advance width="584"/>
  <unicode hex="093C"/>
  <outline>
    <contour>
      <point x="221" y="106"/>
      <point x="197" y="83"/>
      <point x="197" y="28" type="curve" smooth="yes"/>
      <point x="197" y="-26"/>
      <point x="221" y="-49"/>
      <point x="276" y="-49" type="curve" smooth="yes"/>
      <point x="331" y="-49"/>
      <point x="355" y="-26"/>
      <point x="355" y="28" type="curve" smooth="yes"/>
      <point x="355" y="83"/>
      <point x="331" y="106"/>
      <point x="276" y="106" type="curve" smooth="yes"/>
    </contour>
    <contour>
      <point x="277" y="28" type="move" name="_nukta"/>
    </contour>
  </outline>
</glyph>
<glyph name="iiMatra-deva" format="1">
  <advance width="568"/>
  <unicode hex="0940"/>
  <outline>
    <contour>
      <point x="338" y="1209" type="line"/>
      <point x="230" y="1554"/>
      <point x="21" y="1766"/>
      <point x="-204" y="1766" type="curve" smooth="yes"/>
      <point x="-354" y="1766"/>
      <point x="-405" y="1662"/>
      <point x="-405" y="1578" type="curve" smooth="yes"/>
      <point x="-405" y="1484"/>
      <point x="-356" y="1394"/>
      <point x="-276" y="1338" type="curve"/>
      <point x="-218" y="1401" type="line"/>
      <point x="-266" y="1442"/>
      <point x="-300" y="1493"/>
      <point x="-300" y="1553" type="curve" smooth="yes"/>
      <point x="-300" y="1619"/>
      <point x="-261" y="1658"/>
      <point x="-192" y="1658" type="curve" smooth="yes"/>
      <point x="-19" y="1658"/>
      <point x="172" y="1428"/>
      <point x="257" y="1155" type="curve"/>
    </contour>
    <contour>
      <point x="347" y="0" type="line"/>
      <point x="347" y="1204" type="line"/>
      <point x="221" y="1204" type="line"/>
      <point x="221" y="0" type="line"/>
    </contour>
    <contour>
      <point x="581" y="1143" type="line"/>
      <point x="581" y="1247" type="line"/>
      <point x="-12" y="1247" type="line"/>
      <point x="-12" y="1143" type="line"/>
    </contour>
    <contour>
      <point x="-235" y="1168" type="move" name="iimatra"/>
    </contour>
    <contour>
      <point x="284" y="1168" type="move" name="top"/>
    </contour>
  </outline>
</glyph>
<glyph name="rVocalicMatra-deva" format="1">
  <advance width="540"/>
  <unicode hex="0943"/>
  <outline>
    <contour>
      <point x="91" y="50"/>
      <point x="-19" y="-55"/>
      <point x="-19" y="-188" type="curve"/>
      <point x="-19" y="-339"/>
      <point x="116" y="-413"/>
      <point x="244" y="-413" type="curve" smooth="yes"/>
      <point x="354" y="-413"/>
      <point x="453" y="-370"/>
      <point x="526" y="-315" type="curve"/>
      <point x="477" y="-227" type="line"/>
      <point x="416" y="-271"/>
      <point x="332" y="-308"/>
      <point x="252" y="-310" type="curve" smooth="yes"/>
      <point x="162" y="-310"/>
      <point x="100" y="-268"/>
      <point x="100" y="-185" type="curve" smooth="yes"/>
      <point x="100" y="-90"/>
      <point x="175" y="-37"/>
      <point x="322" y="0" type="curve"/>
      <point x="278" y="87" type="line"/>
    </contour>
    <contour>
      <point x="196" y="20" type="move" name="_bottom"/>
    </contour>
  </outline>
</glyph>
<glyph name="aiMatra-deva" format="1">
  <advance width="540"/>
  <unicode hex="0948"/>
  <outline>
    <contour>
      <point x="307" y="1206" type="line"/>
      <point x="204" y="1654"/>
      <point x="63" y="1765"/>
      <point x="-247" y="1765" type="curve" smooth="yes"/>
      <point x="-317" y="1765"/>
      <point x="-365" y="1757"/>
      <point x="-417" y="1748" type="curve"/>
      <point x="-395" y="1648" type="line"/>
      <point x="-348" y="1655"/>
      <point x="-294" y="1662"/>
      <point x="-235" y="1662" type="curve" smooth="yes"/>
      <point x="-28" y="1662"/>
      <point x="81" y="1633"/>
      <point x="211" y="1301" type="curve"/>
      <point x="239" y="1305" type="line"/>
      <point x="93" y="1474"/>
      <point x="34" y="1520"/>
      <point x="-147" y="1523" type="curve" smooth="yes"/>
      <point x="-226" y="1523"/>
      <point x="-286" y="1514"/>
      <point x="-345" y="1504" type="curve"/>
      <point x="-323" y="1410" type="line"/>
      <point x="-258" y="1420"/>
      <point x="-199" y="1427"/>
      <point x="-135" y="1427" type="curve" smooth="yes"/>
      <point x="48" y="1427"/>
      <point x="121" y="1350"/>
      <point x="243" y="1183" type="curve"/>
    </contour>
    <contour>
      <point x="256" y="1168" type="move" name="_top"/>
    </contour>
  </outline>
</glyph>
<glyph name="oMatra-deva" format="1">
  <advance width="554"/>
  <unicode hex="094B"/>
  <outline>
    <component base="aaMatra-deva"/>
    <component base="eMatra-deva" xOffset="7"/>
    <contour>
      <point x="378" y="1395" type="move" name="anusvara"/>
    </contour>
  </outline>
</glyph>
<glyph name="acute-deva" format="1">
  <advance width="600"/>
  <unicode hex="0954"/>
  <outline>
    <contour>
      <point x="54" y="1765" type="line"/>
      <point x="-327" y="1388" type="line"/>
      <point x="-265" y="1320" type="line"/>
      <point x="135" y="1692" type="line"/>
    </contour>
  </outline>
</glyph>
<glyph name="za-deva" format="1">
  <advance width="1418"/>
  <unicode hex="095B"/>
  <outline>
    <component base="ja-deva"/>
    <component base="nukta-deva" xOffset="250" yOffset="38"/>
    <contour>
      <point x="835" y="849" type="move" name="top"/>
    </contour>
    <contour>
      <point x="832" y="20" type="move" name="bottom"/>
    </contour>
  </outline>
</glyph>
<glyph name="dddha-deva" format="1">
  <advance width="986"/>
  <unicode hex="095C"/>
  <outline>
    <component base="dda-deva"/>
    <component base="nukta-deva" xOffset="232" yOffset="-181"/>
    <contour>
      <point x="523" y="849" type="move" name="top"/>
    </contour>
    <contour>
      <point x="443" y="-35" type="move" name="bottom"/>
    </contour>
    <contour>
      <point x="369" y="849" type="move" name="topcandrabindu"/>
    </contour>
  </outline>
</glyph>
<glyph name="rha-deva" format="1">
  <advance width="1069"/>
  <unicode hex="095D"/>
  <outline>
    <component base="ddha-deva"/>
    <component base="nukta-deva" xOffset="-165" yOffset="16"/>
    <contour>
      <point x="575" y="849" type="move" name="top"/>
    </contour>
    <contour>
      <point x="497" y="20" type="move" name="bottom"/>
    </contour>
    <contour>
      <point x="385" y="849" type="move" name="topcandrabindu"/>
    </contour>
  </outline>
</glyph>
<glyph name="jja-deva" format="1">
  <advance width="1418"/>
  <unicode hex="097C"/>
  <outline>
    <contour>
      <point x="114" y="49" type="line"/>
      <point x="114" y="-52" type="line"/>
      <point x="1204" y="-52" type="line"/>
      <point x="1204" y="49" type="line"/>
    </contour>
    <component base="ja-deva"/>
  </outline>
</glyph>
<glyph name="bba-deva" format="1">
  <advance width="1103"/>
  <unicode hex="097F"/>
  <outline>
    <contour>
      <point x="90" y="50" type="line"/>
      <point x="90" y="-52" type="line"/>
      <point x="889" y="-52" type="line"/>
      <point x="889" y="50" type="line"/>
    </contour>
    <component base="ba-deva"/>
  </outline>
</glyph>
<glyph name="rightFacingSvasti" format="1">
  <advance width="1622"/>
  <unicode hex="0FD5"/>
  <outline>
    <contour>
      <point x="749" y="1202" type="line"/>
      <point x="749" y="0" type="line"/>
      <point x="875" y="0" type="line"/>
      <point x="875" y="1202" type="line"/>
    </contour>
    <contour>
      <point x="199" y="105" type="line"/>
      <point x="199" y="0" type="line"/>
      <point x="875" y="0" type="line"/>
      <point x="875" y="105" type="line"/>
    </contour>
    <contour>
      <point x="199" y="1247" type="line"/>
      <point x="199" y="609" type="line"/>
      <point x="325" y="609" type="line"/>
      <point x="325" y="1247" type="line"/>
    </contour>
    <contour>
      <point x="199" y="690" type="line"/>
      <point x="199" y="585" type="line"/>
      <point x="1425" y="585" type="line"/>
      <point x="1425" y="690" type="line"/>
    </contour>
    <contour>
      <point x="1299" y="690" type="line"/>
      <point x="1299" y="0" type="line"/>
      <point x="1425" y="0" type="line"/>
      <point x="1425" y="690" type="line"/>
    </contour>
    <contour>
      <point x="749" y="1247" type="line"/>
      <point x="749" y="1143" type="line"/>
      <point x="1425" y="1143" type="line"/>
      <point x="1425" y="1247" type="line"/>
    </contour>
  </outline>
</glyph>
<glyph name="anusvara_eMatra-deva" format="1">
  <advance width="540"/>
  <outline>
    <contour>
      <point x="262" y="1660"/>
      <point x="238" y="1637"/>
      <point x="238" y="1582" type="curve" smooth="yes"/>
      <point x="238" y="1528"/>
      <point x="262" y="1505"/>
      <point x="317" y="1505" type="curve" smooth="yes"/>
      <point x="372" y="1505"/>
      <point x="396" y="1528"/>
      <point x="396" y="1582" type="curve" smooth="yes"/>
      <point x="396" y="1637"/>
      <point x="372" y="1660"/>
      <point x="317" y="1660" type="curve" smooth="yes"/>
    </contour>
  </outline>
</glyph>
<glyph name="d-deva" format="1">
  <advance width="1025"/>
  <outline>
    <component base="da-deva"/>
    <component base="halant-deva" xOffset="468" yOffset="75"/>
    <contour>
      <point x="372" y="849" type="move" name="top"/>
    </contour>
    <contour>
      <point x="372" y="20" type="move" name="bottom"/>
    </contour>
  </outline>
</glyph>
<glyph name="d_dha-deva" format="1">
  <advance width="1286"/>
  <outline>
    <contour>
      <point x="-12" y="1219" type="line"/>
      <point x="-12" y="1115" type="line"/>
      <point x="1304" y="1115" type="line"/>
      <point x="1304" y="1219" type="line"/>
    </contour>
    <contour>
      <point x="917" y="1150" type="line"/>
      <point x="917" y="837" type="line"/>
      <point x="976" y="857" type="line"/>
      <point x="918" y="868"/>
      <point x="862" y="873"/>
      <point x="812" y="873" type="curve" smooth="yes"/>
      <point x="469" y="873"/>
      <point x="348" y="721"/>
      <point x="348" y="478" type="curve" smooth="yes"/>
      <point x="348" y="232"/>
      <point x="503" y="69"/>
      <point x="795" y="69" type="curve" smooth="yes"/>
      <point x="909" y="69"/>
      <point x="1005" y="94"/>
      <point x="1080" y="144" type="curve" smooth="yes"/>
      <point x="1146" y="188"/>
      <point x="1175" y="245"/>
      <point x="1175" y="297" type="curve" smooth="yes"/>
      <point x="1175" y="371"/>
      <point x="1107" y="436"/>
      <point x="1002" y="468" type="curve"/>
      <point x="925" y="398" type="line"/>
      <point x="1021" y="211" type="line"/>
      <point x="1047" y="253" type="line"/>
      <point x="952" y="194"/>
      <point x="872" y="179"/>
      <point x="788" y="179" type="curve" smooth="yes"/>
      <point x="606" y="179"/>
      <point x="481" y="253"/>
      <point x="481" y="469" type="curve" smooth="yes"/>
      <point x="481" y="678"/>
      <point x="580" y="760"/>
      <point x="820" y="760" type="curve" smooth="yes"/>
      <point x="921" y="760"/>
      <point x="1017" y="754"/>
      <point x="1044" y="752" type="curve"/>
      <point x="1044" y="1150" type="line"/>
    </contour>
    <contour>
      <point x="154" y="379"/>
      <point x="77" y="287"/>
      <point x="75" y="171" type="curve" smooth="yes"/>
      <point x="72" y="41"/>
      <point x="155" y="-48"/>
      <point x="303" y="-76" type="curve" smooth="yes"/>
      <point x="348" y="-86"/>
      <point x="399" y="-88"/>
      <point x="456" y="-85" type="curve"/>
      <point x="496" y="-5" type="line"/>
      <point x="432" y="-3"/>
      <point x="373" y="3"/>
      <point x="326" y="18" type="curve" smooth="yes"/>
      <point x="247" y="42"/>
      <point x="191" y="92"/>
      <point x="190" y="171" type="curve" smooth="yes"/>
      <point x="188" y="258"/>
      <point x="234" y="307"/>
      <point x="323" y="344" type="curve"/>
      <point x="287" y="418" type="line"/>
    </contour>
    <contour>
      <point x="998" y="-45"/>
      <point x="901" y="-294"/>
      <point x="680" y="-294" type="curve" smooth="yes"/>
      <point x="590" y="-294"/>
      <point x="526" y="-239"/>
      <point x="526" y="-153" type="curve" smooth="yes"/>
      <point x="526" y="-22"/>
      <point x="650" y="39"/>
      <point x="734" y="89" type="curve"/>
      <point x="682" y="167" type="line"/>
      <point x="614" y="129"/>
      <point x="403" y="46"/>
      <point x="403" y="-149" type="curve" smooth="yes"/>
      <point x="403" y="-303"/>
      <point x="518" y="-401"/>
      <point x="687" y="-401" type="curve" smooth="yes"/>
      <point x="1000" y="-401"/>
      <point x="1108" y="-72"/>
      <point x="1107" y="179" type="curve"/>
      <point x="1027" y="224" type="line"/>
    </contour>
    <contour>
      <point x="1043" y="185" type="line"/>
      <point x="1217" y="-134" type="line"/>
      <point x="1313" y="-71" type="line"/>
      <point x="1114" y="219" type="line"/>
    </contour>
    <contour>
      <point x="980" y="1140" type="move" name="top"/>
    </contour>
    <contour>
      <point x="752" y="-343" type="move" name="bottom"/>
    </contour>
  </outline>
</glyph>
<glyph name="d_ga-deva" format="1">
  <advance width="1026"/>
  <outline>
    <contour>
      <point x="418" y="-175" type="line"/>
      <point x="244" y="-195" type="line"/>
      <point x="244" y="-285" type="line"/>
      <point x="414" y="-474" type="line"/>
      <point x="501" y="-471"/>
      <point x="520" y="-423"/>
      <point x="520" y="-365" type="curve" smooth="yes"/>
      <point x="520" y="-175" type="line"/>
    </contour>
    <contour>
      <point x="397" y="173" type="line"/>
      <point x="396" y="-340" type="line"/>
      <point x="520" y="-238" type="line"/>
      <point x="521" y="173" type="line"/>
    </contour>
    <component base="da-deva"/>
    <contour>
      <point x="721" y="1168" type="move" name="top"/>
    </contour>
    <contour>
      <point x="805" y="-0" type="move" name="bottom"/>
    </contour>
  </outline>
</glyph>
<glyph name="dd-deva" format="1">
  <advance width="986"/>
  <outline>
    <component base="dda-deva"/>
    <component base="halant-deva" xOffset="412" yOffset="-19"/>
    <contour>
      <point x="348" y="849" type="move" name="top"/>
    </contour>
    <contour>
      <point x="348" y="20" type="move" name="bottom"/>
    </contour>
  </outline>
</glyph>
<glyph name="ddh_ddha-deva" format="1">
  <advance width="1108"/>
  <outline>
    <contour>
      <point x="719" y="1202" type="line"/>
      <point x="719" y="936" type="line"/>
      <point x="775" y="973" type="line"/>
      <point x="709" y="984"/>
      <point x="632" y="990"/>
      <point x="569" y="990" type="curve" smooth="yes"/>
      <point x="303" y="985"/>
      <point x="150" y="862"/>
      <point x="150" y="591" type="curve" smooth="yes"/>
      <point x="150" y="310"/>
      <point x="332" y="191"/>
      <point x="599" y="190" type="curve" smooth="yes"/>
      <point x="823" y="190"/>
      <point x="1015" y="277"/>
      <point x="1015" y="469" type="curve" smooth="yes"/>
      <point x="1015" y="599"/>
      <point x="922" y="672"/>
      <point x="785" y="672" type="curve" smooth="yes"/>
      <point x="633" y="672"/>
      <point x="571" y="582"/>
      <point x="571" y="490" type="curve" smooth="yes"/>
      <point x="571" y="390"/>
      <point x="632" y="322"/>
      <point x="718" y="265" type="curve"/>
      <point x="804" y="289" type="line"/>
      <point x="713" y="349"/>
      <point x="681" y="414"/>
      <point x="681" y="475" type="curve" smooth="yes"/>
      <point x="681" y="534"/>
      <point x="715" y="578"/>
      <point x="791" y="578" type="curve" smooth="yes"/>
      <point x="860" y="578"/>
      <point x="912" y="550"/>
      <point x="912" y="475" type="curve" smooth="yes"/>
      <point x="912" y="370"/>
      <point x="823" y="289"/>
      <point x="614" y="288" type="curve" smooth="yes"/>
      <point x="369" y="287"/>
      <point x="274" y="377"/>
      <point x="274" y="586" type="curve" smooth="yes"/>
      <point x="274" y="862"/>
      <point x="479" y="879"/>
      <point x="622" y="879" type="curve" smooth="yes"/>
      <point x="679" y="879"/>
      <point x="786" y="877"/>
      <point x="843" y="872" type="curve"/>
      <point x="843" y="1202" type="line"/>
    </contour>
    <contour>
      <point x="278" y="272"/>
      <point x="146" y="137"/>
      <point x="146" y="-102" type="curve" smooth="yes"/>
      <point x="146" y="-379"/>
      <point x="332" y="-502"/>
      <point x="598" y="-502" type="curve" smooth="yes"/>
      <point x="822" y="-502"/>
      <point x="1014" y="-413"/>
      <point x="1014" y="-221" type="curve" smooth="yes"/>
      <point x="1014" y="-91"/>
      <point x="921" y="-18"/>
      <point x="784" y="-18" type="curve" smooth="yes"/>
      <point x="632" y="-18"/>
      <point x="570" y="-108"/>
      <point x="570" y="-200" type="curve" smooth="yes"/>
      <point x="570" y="-300"/>
      <point x="631" y="-368"/>
      <point x="717" y="-425" type="curve"/>
      <point x="803" y="-401" type="line"/>
      <point x="712" y="-341"/>
      <point x="680" y="-275"/>
      <point x="680" y="-215" type="curve" smooth="yes"/>
      <point x="680" y="-156"/>
      <point x="714" y="-112"/>
      <point x="791" y="-112" type="curve" smooth="yes"/>
      <point x="859" y="-112"/>
      <point x="911" y="-140"/>
      <point x="911" y="-215" type="curve" smooth="yes"/>
      <point x="911" y="-320"/>
      <point x="822" y="-398"/>
      <point x="613" y="-399" type="curve" smooth="yes"/>
      <point x="375" y="-400"/>
      <point x="270" y="-311"/>
      <point x="270" y="-104" type="curve" smooth="yes"/>
      <point x="270" y="89"/>
      <point x="371" y="187"/>
      <point x="634" y="191" type="curve"/>
      <point x="610" y="272" type="line"/>
    </contour>
    <contour>
      <point x="-12" y="1247" type="line"/>
      <point x="-12" y="1143" type="line"/>
      <point x="1121" y="1143" type="line"/>
      <point x="1121" y="1247" type="line"/>
    </contour>
    <contour>
      <point x="781" y="1168" type="move" name="top"/>
    </contour>
    <contour>
      <point x="638" y="-461" type="move" name="bottom"/>
    </contour>
    <contour>
      <point x="561" y="1168" type="move" name="topcandrabindu"/>
    </contour>
  </outline>
</glyph>
<glyph name="ka_ra-deva" format="1">
  <advance width="1491"/>
  <outline>
    <contour>
      <point x="764" y="370" type="line"/>
      <point x="728" y="434" type="line"/>
      <point x="180" y="59" type="line"/>
      <point x="253" y="-36" type="line"/>
    </contour>
    <component base="ka-deva"/>
    <contour>
      <point x="786" y="1168" type="move" name="top"/>
    </contour>
    <contour>
      <point x="786" y="28" type="move" name="bottom"/>
    </contour>
  </outline>
</glyph>
<glyph name="la_ra-deva" format="1">
  <advance width="1404"/>
  <outline>
    <contour>
      <point x="1178" y="451" type="line"/>
      <point x="1149" y="558" type="line"/>
      <point x="627" y="172" type="line"/>
      <point x="705" y="80" type="line"/>
    </contour>
    <component base="la-deva"/>
    <contour>
      <point x="1129" y="1168" type="move" name="top"/>
    </contour>
    <contour>
      <point x="1130" y="28" type="move" name="bottom"/>
    </contour>
  </outline>
</glyph>
<glyph name="na_ra-deva" format="1">
  <advance width="1080"/>
  <outline>
    <contour>
      <point x="843" y="447" type="line"/>
      <point x="793" y="538" type="line"/>
      <point x="167" y="72" type="line"/>
      <point x="245" y="-21" type="line"/>
    </contour>
    <component base="na-deva"/>
    <contour>
      <point x="804" y="1168" type="move" name="top"/>
    </contour>
    <contour>
      <point x="802" y="28" type="move" name="bottom"/>
    </contour>
    <contour>
      <point x="534" y="1168" type="move" name="topcandrabindu"/>
    </contour>
  </outline>
</glyph>
<glyph name="ng_ka-deva" format="1">
  <advance width="1199"/>
  <outline>
    <contour>
      <point x="791" y="191"/>
      <point x="973" y="255"/>
      <point x="973" y="464" type="curve" smooth="yes"/>
      <point x="973" y="651"/>
      <point x="822" y="678"/>
      <point x="681" y="678" type="curve" smooth="yes"/>
      <point x="565" y="678"/>
      <point x="408" y="658"/>
      <point x="336" y="641" type="curve"/>
      <point x="359" y="629" type="line"/>
      <point x="337" y="650"/>
      <point x="298" y="716"/>
      <point x="298" y="787" type="curve" smooth="yes"/>
      <point x="298" y="856"/>
      <point x="331" y="881"/>
      <point x="451" y="881" type="curve" smooth="yes"/>
      <point x="808" y="881" type="line"/>
      <point x="795" y="986" type="line"/>
      <point x="425" y="986" type="line" smooth="yes"/>
      <point x="260" y="986"/>
      <point x="186" y="935"/>
      <point x="186" y="821" type="curve" smooth="yes"/>
      <point x="186" y="722"/>
      <point x="243" y="604"/>
      <point x="307" y="553" type="curve"/>
      <point x="332" y="537"/>
      <point x="345" y="536"/>
      <point x="361" y="538" type="curve" smooth="yes"/>
      <point x="400" y="543"/>
      <point x="566" y="569"/>
      <point x="682" y="569" type="curve" smooth="yes"/>
      <point x="811" y="569"/>
      <point x="859" y="532"/>
      <point x="859" y="452" type="curve" smooth="yes"/>
      <point x="859" y="340"/>
      <point x="762" y="294"/>
      <point x="598" y="294" type="curve" smooth="yes"/>
      <point x="390" y="294"/>
      <point x="277" y="369"/>
      <point x="171" y="476" type="curve"/>
      <point x="107" y="415" type="line"/>
      <point x="238" y="258"/>
      <point x="403" y="198"/>
      <point x="590" y="191" type="curve" smooth="yes"/>
    </contour>
    <contour>
      <point x="445" y="-453"/>
      <point x="557" y="-394"/>
      <point x="624" y="-310" type="curve"/>
      <point x="607" y="-204" type="line"/>
      <point x="547" y="-291"/>
      <point x="446" y="-351"/>
      <point x="334" y="-351" type="curve" smooth="yes"/>
      <point x="234" y="-351"/>
      <point x="174" y="-292"/>
      <point x="174" y="-179" type="curve" smooth="yes"/>
      <point x="174" y="-52"/>
      <point x="247" y="1"/>
      <point x="350" y="5" type="curve" smooth="yes"/>
      <point x="432" y="8"/>
      <point x="518" y="-7"/>
      <point x="617" y="-51" type="curve"/>
      <point x="617" y="28" type="line"/>
      <point x="538" y="79"/>
      <point x="440" y="103"/>
      <point x="349" y="103" type="curve" smooth="yes"/>
      <point x="165" y="103"/>
      <point x="60" y="7"/>
      <point x="60" y="-175" type="curve" smooth="yes"/>
      <point x="60" y="-331"/>
      <point x="151" y="-453"/>
      <point x="325" y="-453" type="curve" smooth="yes"/>
    </contour>
    <contour>
      <point x="691" y="-583" type="line"/>
      <point x="691" y="254" type="line"/>
      <point x="568" y="254" type="line"/>
      <point x="568" y="-583" type="line"/>
    </contour>
    <contour>
      <point x="1103" y="-378"/>
      <point x="1125" y="-259"/>
      <point x="1125" y="-180" type="curve" smooth="yes"/>
      <point x="1125" y="-23"/>
      <point x="1045" y="73"/>
      <point x="918" y="73" type="curve" smooth="yes"/>
      <point x="827" y="73"/>
      <point x="739" y="31"/>
      <point x="654" y="-66" type="curve"/>
      <point x="654" y="-219" type="line"/>
      <point x="737" y="-102"/>
      <point x="817" y="-36"/>
      <point x="904" y="-36" type="curve" smooth="yes"/>
      <point x="978" y="-36"/>
      <point x="1015" y="-95"/>
      <point x="1015" y="-183" type="curve" smooth="yes"/>
      <point x="1015" y="-248"/>
      <point x="999" y="-332"/>
      <point x="920" y="-430" type="curve"/>
      <point x="1010" y="-493" type="line"/>
    </contour>
    <contour>
      <point x="1031" y="690"/>
      <point x="1055" y="714"/>
      <point x="1055" y="768" type="curve" smooth="yes"/>
      <point x="1055" y="823"/>
      <point x="1031" y="846"/>
      <point x="976" y="846" type="curve" smooth="yes"/>
      <point x="921" y="846"/>
      <point x="897" y="823"/>
      <point x="897" y="768" type="curve" smooth="yes"/>
      <point x="897" y="714"/>
      <point x="921" y="690"/>
      <point x="976" y="690" type="curve" smooth="yes"/>
    </contour>
    <contour>
      <point x="1117" y="1056" type="line"/>
      <point x="1117" y="1232" type="line"/>
      <point x="177" y="1232" type="line"/>
      <point x="177" y="1056" type="line"/>
    </contour>
    <contour>
      <point x="955" y="968" type="line"/>
      <point x="955" y="1222" type="line"/>
      <point x="544" y="1222" type="line"/>
      <point x="544" y="968" type="line"/>
    </contour>
    <contour>
      <point x="797" y="1168" type="move" name="top"/>
    </contour>
    <contour>
      <point x="628" y="-553" type="move" name="bottom"/>
    </contour>
    <contour>
      <point x="593" y="1168" type="move" name="topcandrabindu"/>
    </contour>
  </outline>
</glyph>
<glyph name="ng_kha-deva" format="1">
  <advance width="1265"/>
  <outline>
    <contour>
      <point x="-12" y="1247" type="line"/>
      <point x="-12" y="1142" type="line"/>
      <point x="1278" y="1142" type="line"/>
      <point x="1278" y="1247" type="line"/>
    </contour>
    <contour>
      <point x="800" y="1207" type="line"/>
      <point x="800" y="881" type="line"/>
      <point x="926" y="881" type="line"/>
      <point x="926" y="1207" type="line"/>
    </contour>
    <contour>
      <point x="490" y="986" type="line" smooth="yes"/>
      <point x="325" y="986"/>
      <point x="251" y="935"/>
      <point x="251" y="821" type="curve" smooth="yes"/>
      <point x="251" y="722"/>
      <point x="308" y="604"/>
      <point x="372" y="553" type="curve"/>
      <point x="397" y="537"/>
      <point x="410" y="536"/>
      <point x="426" y="538" type="curve" smooth="yes"/>
      <point x="465" y="543"/>
      <point x="631" y="569"/>
      <point x="747" y="569" type="curve" smooth="yes"/>
      <point x="876" y="569"/>
      <point x="924" y="532"/>
      <point x="924" y="452" type="curve" smooth="yes"/>
      <point x="924" y="340"/>
      <point x="827" y="294"/>
      <point x="663" y="294" type="curve" smooth="yes"/>
      <point x="455" y="294"/>
      <point x="342" y="369"/>
      <point x="236" y="476" type="curve"/>
      <point x="172" y="415" type="line"/>
      <point x="307" y="256"/>
      <point x="472" y="198"/>
      <point x="655" y="191" type="curve" smooth="yes"/>
      <point x="856" y="191"/>
      <point x="1038" y="255"/>
      <point x="1038" y="464" type="curve" smooth="yes"/>
      <point x="1038" y="651"/>
      <point x="887" y="678"/>
      <point x="746" y="678" type="curve" smooth="yes"/>
      <point x="630" y="678"/>
      <point x="473" y="658"/>
      <point x="401" y="641" type="curve"/>
      <point x="424" y="629" type="line"/>
      <point x="402" y="650"/>
      <point x="363" y="716"/>
      <point x="363" y="787" type="curve" smooth="yes"/>
      <point x="363" y="856"/>
      <point x="396" y="881"/>
      <point x="516" y="881" type="curve" smooth="yes"/>
      <point x="873" y="881" type="line"/>
      <point x="860" y="986" type="line"/>
    </contour>
    <contour>
      <point x="888" y="333" type="line"/>
      <point x="888" y="-572" type="line"/>
      <point x="1001" y="-572" type="line"/>
      <point x="1001" y="333" type="line"/>
    </contour>
    <contour>
      <point x="537" y="83"/>
      <point x="435" y="14"/>
      <point x="435" y="-158" type="curve" smooth="yes"/>
      <point x="435" y="-285"/>
      <point x="505" y="-392"/>
      <point x="665" y="-392" type="curve" smooth="yes"/>
      <point x="780" y="-392"/>
      <point x="868" y="-346"/>
      <point x="924" y="-279" type="curve"/>
      <point x="921" y="-162" type="line"/>
      <point x="866" y="-243"/>
      <point x="784" y="-297"/>
      <point x="678" y="-297" type="curve" smooth="yes"/>
      <point x="590" y="-297"/>
      <point x="545" y="-252"/>
      <point x="545" y="-161" type="curve" smooth="yes"/>
      <point x="545" y="-75"/>
      <point x="581" y="-12"/>
      <point x="708" y="-11" type="curve" smooth="yes"/>
      <point x="772" y="-11"/>
      <point x="843" y="-22"/>
      <point x="923" y="-48" type="curve"/>
      <point x="922" y="36" type="line"/>
      <point x="877" y="57"/>
      <point x="793" y="83"/>
      <point x="697" y="83" type="curve" smooth="yes"/>
    </contour>
    <contour>
      <point x="290" y="326" type="line"/>
      <point x="290" y="65" type="line" smooth="yes"/>
      <point x="290" y="-7"/>
      <point x="266" y="-50"/>
      <point x="196" y="-52" type="curve" smooth="yes"/>
      <point x="170" y="-52"/>
      <point x="139" y="-47"/>
      <point x="104" y="-18" type="curve"/>
      <point x="34" y="-65" type="line"/>
      <point x="165" y="-465"/>
      <point x="397" y="-612"/>
      <point x="646" y="-612" type="curve" smooth="yes"/>
      <point x="699" y="-612"/>
      <point x="773" y="-609"/>
      <point x="844" y="-574" type="curve"/>
      <point x="820" y="-483" type="line"/>
      <point x="774" y="-502"/>
      <point x="720" y="-516"/>
      <point x="643" y="-516" type="curve" smooth="yes"/>
      <point x="435" y="-516"/>
      <point x="240" y="-368"/>
      <point x="148" y="-90" type="curve"/>
      <point x="125" y="-122" type="line"/>
      <point x="157" y="-133"/>
      <point x="191" y="-142"/>
      <point x="225" y="-142" type="curve" smooth="yes"/>
      <point x="320" y="-142"/>
      <point x="398" y="-85"/>
      <point x="398" y="71" type="curve" smooth="yes"/>
      <point x="398" y="326" type="line"/>
    </contour>
    <contour>
      <point x="983" y="843"/>
      <point x="959" y="820"/>
      <point x="959" y="765" type="curve" smooth="yes"/>
      <point x="959" y="711"/>
      <point x="983" y="688"/>
      <point x="1038" y="688" type="curve" smooth="yes"/>
      <point x="1093" y="688"/>
      <point x="1117" y="711"/>
      <point x="1117" y="765" type="curve" smooth="yes"/>
      <point x="1117" y="820"/>
      <point x="1093" y="843"/>
      <point x="1038" y="843" type="curve" smooth="yes"/>
    </contour>
    <contour>
      <point x="864" y="1168" type="move" name="top"/>
    </contour>
    <contour>
      <point x="955" y="-537" type="move" name="bottom"/>
    </contour>
    <contour>
      <point x="642" y="1168" type="move" name="topcandrabindu"/>
    </contour>
  </outline>
</glyph>
<glyph name="ny_ja-deva" format="1">
  <advance width="2408"/>
  <outline>
    <component base="ny-deva"/>
    <component base="ja-deva" xOffset="990"/>
    <contour>
      <point x="2132" y="1168" type="move" name="top"/>
    </contour>
    <contour>
      <point x="2132" y="28" type="move" name="bottom"/>
    </contour>
    <contour>
      <point x="1679" y="1168" type="move" name="topcandrabindu"/>
    </contour>
  </outline>
</glyph>
<glyph name="r-deva" format="1">
  <advance width="650"/>
  <outline>
    <component base="ra-deva"/>
    <component base="halant-deva" xOffset="375" yOffset="3"/>
    <contour>
      <point x="221" y="849" type="move" name="top"/>
    </contour>
    <contour>
      <point x="221" y="20" type="move" name="bottom"/>
    </contour>
  </outline>
</glyph>
<glyph name="rr-deva" format="1">
  <advance width="650"/>
  <outline>
    <component base="rra-deva"/>
    <contour>
      <point x="221" y="849" type="move" name="top"/>
    </contour>
    <contour>
      <point x="221" y="20" type="move" name="bottom"/>
    </contour>
  </outline>
</glyph>
<glyph name="sh_ca-deva" format="1">
  <advance width="1280"/>
  <outline>
    <contour>
      <point x="248" y="1283"/>
      <point x="132" y="1184"/>
      <point x="132" y="1029" type="curve" smooth="yes"/>
      <point x="132" y="925"/>
      <point x="182" y="819"/>
      <point x="353" y="718" type="curve"/>
      <point x="459" y="771" type="line"/>
      <point x="288" y="859"/>
      <point x="254" y="953"/>
      <point x="254" y="1018" type="curve" smooth="yes"/>
      <point x="254" y="1119"/>
      <point x="320" y="1180"/>
      <point x="437" y="1180" type="curve" smooth="yes"/>
      <point x="539" y="1180"/>
      <point x="614" y="1129"/>
      <point x="614" y="1027" type="curve" smooth="yes"/>
      <point x="614" y="917"/>
      <point x="528" y="842"/>
      <point x="395" y="767" type="curve"/>
      <point x="45" y="572" type="line"/>
      <point x="103" y="475" type="line"/>
      <point x="495" y="700" type="line"/>
      <point x="658" y="795"/>
      <point x="739" y="903"/>
      <point x="739" y="1030" type="curve" smooth="yes"/>
      <point x="739" y="1193"/>
      <point x="621" y="1283"/>
      <point x="438" y="1283" type="curve" smooth="yes"/>
    </contour>
    <contour>
      <point x="124" y="280" type="line"/>
      <point x="176" y="185" type="line"/>
      <point x="604" y="431" type="line"/>
      <point x="552" y="525" type="line"/>
    </contour>
    <contour>
      <point x="417" y="354" type="line"/>
      <point x="354" y="299"/>
      <point x="319" y="245"/>
      <point x="319" y="174" type="curve" smooth="yes"/>
      <point x="319" y="47"/>
      <point x="415" y="-61"/>
      <point x="584" y="-61" type="curve" smooth="yes"/>
      <point x="798" y="-61"/>
      <point x="981" y="117"/>
      <point x="1011" y="348" type="curve"/>
      <point x="942" y="442" type="line"/>
      <point x="933" y="233"/>
      <point x="760" y="57"/>
      <point x="594" y="56" type="curve" smooth="yes"/>
      <point x="490" y="55"/>
      <point x="435" y="113"/>
      <point x="435" y="202" type="curve" smooth="yes"/>
      <point x="435" y="288"/>
      <point x="496" y="370"/>
      <point x="604" y="431" type="curve"/>
      <point x="552" y="470" type="line"/>
    </contour>
    <contour>
      <point x="393" y="689" type="line"/>
      <point x="515" y="619"/>
      <point x="632" y="579"/>
      <point x="751" y="562" type="curve" smooth="yes"/>
      <point x="835" y="547"/>
      <point x="918" y="542"/>
      <point x="1014" y="545" type="curve"/>
      <point x="1016" y="655" type="line"/>
      <point x="935" y="650"/>
      <point x="852" y="652"/>
      <point x="768" y="665" type="curve" smooth="yes"/>
      <point x="670" y="680"/>
      <point x="572" y="708"/>
      <point x="482" y="756" type="curve"/>
    </contour>
    <contour>
      <point x="940" y="1193" type="line"/>
      <point x="940" y="-22" type="line"/>
      <point x="1066" y="-22" type="line"/>
      <point x="1066" y="1193" type="line"/>
    </contour>
    <contour>
      <point x="815" y="1247" type="line"/>
      <point x="815" y="1143" type="line"/>
      <point x="1293" y="1143" type="line"/>
      <point x="1293" y="1247" type="line"/>
    </contour>
    <contour>
      <point x="1003" y="1168" type="move" name="top"/>
    </contour>
    <contour>
      <point x="1002" y="4" type="move" name="bottom"/>
    </contour>
    <contour>
      <point x="778" y="1168" type="move" name="topcandrabindu"/>
    </contour>
  </outline>
</glyph>
<glyph name="sh_la-deva" format="1">
  <advance width="1869"/>
  <outline>
    <contour>
      <point x="248" y="1283"/>
      <point x="132" y="1184"/>
      <point x="132" y="1029" type="curve" smooth="yes"/>
      <point x="132" y="925"/>
      <point x="182" y="819"/>
      <point x="353" y="718" type="curve"/>
      <point x="459" y="771" type="line"/>
      <point x="288" y="859"/>
      <point x="254" y="953"/>
      <point x="254" y="1018" type="curve" smooth="yes"/>
      <point x="254" y="1119"/>
      <point x="320" y="1180"/>
      <point x="437" y="1180" type="curve" smooth="yes"/>
      <point x="539" y="1180"/>
      <point x="614" y="1129"/>
      <point x="614" y="1027" type="curve" smooth="yes"/>
      <point x="614" y="917"/>
      <point x="528" y="842"/>
      <point x="395" y="767" type="curve"/>
      <point x="45" y="572" type="line"/>
      <point x="103" y="475" type="line" smooth="yes"/>
      <point x="495" y="700" type="line"/>
      <point x="658" y="795"/>
      <point x="739" y="903"/>
      <point x="739" y="1030" type="curve" smooth="yes"/>
      <point x="739" y="1193"/>
      <point x="621" y="1283"/>
      <point x="438" y="1283" type="curve" smooth="yes"/>
    </contour>
    <contour>
      <point x="657" y="670"/>
      <point x="547" y="559"/>
      <point x="547" y="358" type="curve" smooth="yes"/>
      <point x="547" y="102"/>
      <point x="713" y="-72"/>
      <point x="815" y="-184" type="curve"/>
      <point x="908" y="-105" type="line"/>
      <point x="804" y="13"/>
      <point x="673" y="144"/>
      <point x="673" y="337" type="curve" smooth="yes"/>
      <point x="673" y="495"/>
      <point x="759" y="551"/>
      <point x="863" y="551" type="curve" smooth="yes"/>
      <point x="984" y="551"/>
      <point x="1057" y="471"/>
      <point x="1113" y="348" type="curve"/>
      <point x="1152" y="438" type="line"/>
      <point x="1078" y="607"/>
      <point x="976" y="670"/>
      <point x="840" y="670" type="curve" smooth="yes"/>
    </contour>
    <contour>
      <point x="382" y="697" type="line"/>
      <point x="479" y="635"/>
      <point x="575" y="615"/>
      <point x="650" y="601" type="curve" smooth="yes"/>
      <point x="718" y="579"/>
      <point x="789" y="565"/>
      <point x="864" y="562" type="curve"/>
      <point x="877" y="666" type="line"/>
      <point x="816" y="668"/>
      <point x="756" y="675"/>
      <point x="696" y="690" type="curve" smooth="yes"/>
      <point x="636" y="702"/>
      <point x="547" y="720"/>
      <point x="472" y="761" type="curve"/>
    </contour>
    <contour>
      <point x="1204" y="662"/>
      <point x="1052" y="544"/>
      <point x="1052" y="325" type="curve" smooth="yes"/>
      <point x="1052" y="295"/>
      <point x="1055" y="261"/>
      <point x="1064" y="226" type="curve"/>
      <point x="1181" y="241" type="line"/>
      <point x="1178" y="264"/>
      <point x="1176" y="286"/>
      <point x="1176" y="307" type="curve" smooth="yes"/>
      <point x="1176" y="459"/>
      <point x="1258" y="545"/>
      <point x="1379" y="545" type="curve" smooth="yes"/>
      <point x="1474" y="545"/>
      <point x="1530" y="500"/>
      <point x="1563" y="441" type="curve"/>
      <point x="1579" y="527" type="line"/>
      <point x="1543" y="616"/>
      <point x="1444" y="662"/>
      <point x="1358" y="662" type="curve" smooth="yes"/>
    </contour>
    <contour>
      <point x="1529" y="1195" type="line"/>
      <point x="1529" y="-162" type="line"/>
      <point x="1655" y="-162" type="line"/>
      <point x="1655" y="1195" type="line"/>
    </contour>
    <contour>
      <point x="815" y="1247" type="line"/>
      <point x="815" y="1143" type="line"/>
      <point x="1897" y="1143" type="line"/>
      <point x="1897" y="1247" type="line"/>
    </contour>
    <contour>
      <point x="1592" y="1168" type="move" name="top"/>
    </contour>
    <contour>
      <point x="1592" y="-137" type="move" name="bottom"/>
    </contour>
    <contour>
      <point x="1205" y="1168" type="move" name="topcandrabindu"/>
    </contour>
  </outline>
</glyph>
<glyph name="sh_va-deva" format="1">
  <advance width="1279"/>
  <outline>
    <contour>
      <point x="389" y="693" type="line"/>
      <point x="484" y="636"/>
      <point x="574" y="584"/>
      <point x="758" y="545" type="curve"/>
      <point x="753" y="591" type="line"/>
      <point x="624" y="573"/>
      <point x="563" y="555"/>
      <point x="509" y="532" type="curve" smooth="yes"/>
      <point x="374" y="474"/>
      <point x="281" y="381"/>
      <point x="281" y="231" type="curve" smooth="yes"/>
      <point x="281" y="69"/>
      <point x="386" y="-51"/>
      <point x="577" y="-51" type="curve" smooth="yes"/>
      <point x="754" y="-51"/>
      <point x="931" y="72"/>
      <point x="1001" y="292" type="curve"/>
      <point x="948" y="377" type="line"/>
      <point x="879" y="172"/>
      <point x="732" y="62"/>
      <point x="593" y="62" type="curve" smooth="yes"/>
      <point x="480" y="62"/>
      <point x="411" y="122"/>
      <point x="411" y="228" type="curve" smooth="yes"/>
      <point x="411" y="328"/>
      <point x="470" y="395"/>
      <point x="562" y="440" type="curve" smooth="yes"/>
      <point x="661" y="486"/>
      <point x="802" y="506"/>
      <point x="894" y="506" type="curve" smooth="yes"/>
      <point x="918" y="506"/>
      <point x="943" y="505"/>
      <point x="971" y="501" type="curve"/>
      <point x="986" y="610" type="line"/>
      <point x="809" y="618"/>
      <point x="651" y="659"/>
      <point x="483" y="752" type="curve"/>
    </contour>
    <contour>
      <point x="939" y="1193" type="line"/>
      <point x="939" y="-22" type="line"/>
      <point x="1065" y="-22" type="line"/>
      <point x="1065" y="1193" type="line"/>
    </contour>
    <contour>
      <point x="814" y="1247" type="line"/>
      <point x="814" y="1143" type="line"/>
      <point x="1292" y="1143" type="line"/>
      <point x="1292" y="1247" type="line"/>
    </contour>
    <contour>
      <point x="248" y="1283"/>
      <point x="132" y="1184"/>
      <point x="132" y="1029" type="curve" smooth="yes"/>
      <point x="132" y="925"/>
      <point x="182" y="819"/>
      <point x="353" y="718" type="curve"/>
      <point x="459" y="771" type="line"/>
      <point x="288" y="859"/>
      <point x="254" y="953"/>
      <point x="254" y="1018" type="curve" smooth="yes"/>
      <point x="254" y="1119"/>
      <point x="320" y="1180"/>
      <point x="437" y="1180" type="curve" smooth="yes"/>
      <point x="539" y="1180"/>
      <point x="614" y="1129"/>
      <point x="614" y="1027" type="curve" smooth="yes"/>
      <point x="614" y="917"/>
      <point x="528" y="842"/>
      <point x="395" y="767" type="curve"/>
      <point x="45" y="572" type="line"/>
      <point x="103" y="475" type="line"/>
      <point x="495" y="700" type="line"/>
      <point x="658" y="795"/>
      <point x="739" y="903"/>
      <point x="739" y="1032" type="curve" smooth="yes"/>
      <point x="739" y="1193"/>
      <point x="621" y="1283"/>
      <point x="438" y="1283" type="curve" smooth="yes"/>
    </contour>
    <contour>
      <point x="1003" y="1168" type="move" name="top"/>
    </contour>
    <contour>
      <point x="1002" y="4" type="move" name="bottom"/>
    </contour>
    <contour>
      <point x="778" y="1168" type="move" name="topcandrabindu"/>
    </contour>
  </outline>
</glyph>
<glyph name="sha-deva.ss02" format="1">
  <advance width="704"/>
  <outline>
    <contour>
      <point x="196" y="1283"/>
      <point x="74" y="1199"/>
      <point x="74" y="1029" type="curve" smooth="yes"/>
      <point x="74" y="922"/>
      <point x="123" y="819"/>
      <point x="279" y="726" type="curve"/>
      <point x="385" y="772" type="line"/>
      <point x="229" y="863"/>
      <point x="195" y="950"/>
      <point x="195" y="1023" type="curve" smooth="yes"/>
      <point x="195" y="1127"/>
      <point x="260" y="1180"/>
      <point x="374" y="1180" type="curve" smooth="yes"/>
      <point x="481" y="1180"/>
      <point x="546" y="1132"/>
      <point x="546" y="1034" type="curve" smooth="yes"/>
      <point x="546" y="930"/>
      <point x="469" y="853"/>
      <point x="322" y="768" type="curve" smooth="yes"/>
      <point x="209" y="702"/>
      <point x="41" y="624"/>
      <point x="-128" y="579" type="curve"/>
      <point x="-92" y="481" type="line"/>
      <point x="72" y="524"/>
      <point x="283" y="618"/>
      <point x="422" y="701" type="curve" smooth="yes"/>
      <point x="600" y="805"/>
      <point x="671" y="908"/>
      <point x="671" y="1035" type="curve" smooth="yes"/>
      <point x="671" y="1201"/>
      <point x="555" y="1283"/>
      <point x="375" y="1283" type="curve" smooth="yes"/>
    </contour>
    <contour>
      <point x="320" y="695" type="line"/>
      <point x="444" y="623"/>
      <point x="559" y="585"/>
      <point x="676" y="571" type="curve" smooth="yes"/>
      <point x="760" y="558"/>
      <point x="842" y="556"/>
      <point x="943" y="562" type="curve"/>
      <point x="944" y="669" type="line"/>
      <point x="870" y="659"/>
      <point x="783" y="660"/>
      <point x="694" y="673" type="curve" smooth="yes"/>
      <point x="595" y="686"/>
      <point x="495" y="714"/>
      <point x="409" y="759" type="curve"/>
    </contour>
    <contour>
      <point x="218" y="849" type="move" name="top"/>
    </contour>
    <contour>
      <point x="218" y="20" type="move" name="bottom"/>
    </contour>
  </outline>
</glyph>
<glyph name="tth_ya-deva" format="1">
  <advance width="2326"/>
  <outline>
    <component base="ttha-deva"/>
    <component base="ya-deva.post" xOffset="1171"/>
    <contour>
      <point x="2052" y="1168" type="move" name="top"/>
    </contour>
    <contour>
      <point x="2052" y="28" type="move" name="bottom"/>
    </contour>
  </outline>
</glyph>
<glyph name="z-deva" format="1">
  <advance width="937"/>
  <outline>
    <component base="j-deva"/>
    <component base="nukta-deva" xOffset="367" yOffset="25"/>
    <contour>
      <point x="343" y="849" type="move" name="top"/>
    </contour>
    <contour>
      <point x="343" y="20" type="move" name="bottom"/>
    </contour>
  </outline>
</glyph>
<glyph name="zha-deva.np" format="1">
  <advance width="1157"/>
  <outline>
    <contour>
      <point x="484" y="1176" type="line"/>
      <point x="484" y="699" type="line" smooth="yes"/>
      <point x="484" y="553"/>
      <point x="394" y="510"/>
      <point x="303" y="510" type="curve" smooth="yes"/>
      <point x="216" y="510"/>
      <point x="149" y="552"/>
      <point x="91" y="589" type="curve"/>
      <point x="36" y="498" type="line"/>
      <point x="111" y="439"/>
      <point x="209" y="404"/>
      <point x="306" y="404" type="curve" smooth="yes"/>
      <point x="465" y="404"/>
      <point x="610" y="495"/>
      <point x="610" y="716" type="curve" smooth="yes"/>
      <point x="610" y="1185" type="line"/>
    </contour>
    <contour>
      <point x="601" y="163" type="line"/>
      <point x="999" y="-333" type="line"/>
      <point x="1093" y="-257" type="line"/>
      <point x="682" y="198" type="line"/>
    </contour>
    <contour>
      <point x="541" y="280" type="line"/>
      <point x="511" y="225"/>
      <point x="502" y="178"/>
      <point x="498" y="152" type="curve" smooth="yes"/>
      <point x="500" y="85"/>
      <point x="551" y="52"/>
      <point x="603" y="51" type="curve" smooth="yes"/>
      <point x="640" y="52"/>
      <point x="684" y="62"/>
      <point x="758" y="99" type="curve"/>
      <point x="750" y="123" type="line"/>
      <point x="619" y="280" type="line"/>
    </contour>
    <contour>
      <point x="677" y="817"/>
      <point x="562" y="778"/>
      <point x="521" y="729" type="curve"/>
      <point x="568" y="644" type="line"/>
      <point x="600" y="684"/>
      <point x="685" y="711"/>
      <point x="768" y="711" type="curve" smooth="yes"/>
      <point x="914" y="711"/>
      <point x="979" y="632"/>
      <point x="979" y="511" type="curve" smooth="yes"/>
      <point x="979" y="347"/>
      <point x="860" y="242"/>
      <point x="611" y="143" type="curve"/>
      <point x="691" y="72" type="line"/>
      <point x="947" y="171"/>
      <point x="1099" y="314"/>
      <point x="1099" y="522" type="curve" smooth="yes"/>
      <point x="1099" y="685"/>
      <point x="993" y="817"/>
      <point x="770" y="817" type="curve" smooth="yes"/>
    </contour>
    <contour>
      <point x="-12" y="1247" type="line"/>
      <point x="-12" y="1143" type="line"/>
      <point x="1170" y="1143" type="line"/>
      <point x="1170" y="1247" type="line"/>
    </contour>
  </outline>
</glyph>
